PathFileType	4	(X/Y/Z)	s01c0402.trc
DataRate	CameraRate	NumFrames	NumMarkers	Units	OrigDataRate	OrigDataStartFrame	OrigNumFrames
200	200	4	48	mm	200	750	2000
Frame#	Time	racr			lacr			c7			jug			rlel			rdr			llel			ldr			s2			lic			ric			lasi			rasi			rpsi			lpsi			rgt			lgt			rth1			rth2			rth3			rth4			rlfc			rsh1			rsh2			rsh3			rsh4			rlmal			rmmal			rcal			rtoe			rmt5			lth1			lth2			lth4			lth3			llfc			lsh1			lsh2			lsh3			lsh4			llmal			lmmal			lcal			ltoe			lmt5			SBIKE			LBIKE			RBIKE			
		X1	Y1	Z1	X2	Y2	Z2	X3	Y3	Z3	X4	Y4	Z4	X5	Y5	Z5	X6	Y6	Z6	X7	Y7	Z7	X8	Y8	Z8	X9	Y9	Z9	X10	Y10	Z10	X11	Y11	Z11	X12	Y12	Z12	X13	Y13	Z13	X14	Y14	Z14	X15	Y15	Z15	X16	Y16	Z16	X17	Y17	Z17	X18	Y18	Z18	X19	Y19	Z19	X20	Y20	Z20	X21	Y21	Z21	X22	Y22	Z22	X23	Y23	Z23	X24	Y24	Z24	X25	Y25	Z25	X26	Y26	Z26	X27	Y27	Z27	X28	Y28	Z28	X29	Y29	Z29	X30	Y30	Z30	X31	Y31	Z31	X32	Y32	Z32	X33	Y33	Z33	X34	Y34	Z34	X35	Y35	Z35	X36	Y36	Z36	X37	Y37	Z37	X38	Y38	Z38	X39	Y39	Z39	X40	Y40	Z40	X41	Y41	Z41	X42	Y42	Z42	X43	Y43	Z43	X44	Y44	Z44	X45	Y45	Z45	X46	Y46	Z46	X47	Y47	Z47	X48	Y48	Z48	
750	3.7500	702.531906	1271.617578	-51.556057	745.263111	1249.827136	-435.033760	723.328595	1376.592761	-242.208071	701.652611	1205.824312	-238.364194	526.339216	1038.021060	32.999506	691.421653	890.640292	-67.765002	551.966591	1062.043357	-565.626496	692.608740	886.971872	-482.056844	183.590996	1209.180953	-254.770255	349.987417	1203.045449	-432.176059	338.348685	1194.364843	-100.585688	344.359225	1147.014912	-407.398440	366.388482	1148.359587	-133.108243	218.524170	1243.503208	-206.166944	213.308058	1249.302830	-312.079116	288.118418	1083.307490	-75.383706	281.083966	1065.846967	-451.428895	362.383067	971.183592	-61.993922	414.244763	906.863150	-68.896346	465.727520	833.289260	-82.410649	459.332271	939.099588	-84.031560	505.803607	728.469625	-106.037306	446.121435	624.676292	-72.267499	412.100583	546.969614	-76.311809	368.048146	470.211470	-87.033081	452.889528	528.907919	-117.338401	296.379428	363.789782	-103.035733	338.825287	371.171771	-184.712418	243.281086	345.191845	-157.297634	500.246660	258.542263	-142.620497	391.889278	254.289516	-72.645877	333.006124	953.470568	-462.748575	394.687943	897.586300	-461.811739	433.118323	925.803828	-449.498450	446.332454	822.475530	-449.745626	476.427843	711.693435	-434.871758	368.395120	682.775797	-464.137440	294.971131	638.028652	-455.040585	219.592740	597.840596	-440.512182	325.415534	593.530979	-424.943835	112.539837	540.692823	-420.985909	136.590387	522.152944	-342.447158	60.867505	560.544551	-375.936038	181.391754	309.700380	-379.532707	110.365681	389.548084	-445.210997	-228.933616	891.112422	-253.489318	-22.801628	80.831974	-456.146033	-22.764246	80.336607	-55.896185	
751	3.7550	702.710850	1271.707667	-52.892886	744.135026	1251.744831	-436.717669	722.262002	1377.832284	-243.275546	701.653911	1207.091483	-239.883835	526.435332	1038.169315	32.432932	691.545569	890.596100	-67.644302	552.436402	1062.075880	-565.850269	692.739563	886.843998	-482.337519	182.963646	1206.652304	-253.505642	348.723739	1202.625308	-431.218468	338.662094	1192.648700	-99.320520	343.825908	1146.806227	-406.424906	366.563763	1146.414359	-132.093406	218.039508	1241.000400	-204.855456	212.291904	1247.344360	-310.497383	287.458948	1080.582031	-75.064949	281.999686	1065.711411	-451.345799	360.164146	966.890816	-62.037489	410.716142	901.511482	-68.811871	460.699205	827.182899	-82.433686	455.260641	932.547020	-82.371601	499.553728	721.403702	-106.222455	441.147151	616.770666	-72.259675	407.731089	538.828141	-76.349323	364.317545	461.716011	-86.966823	448.594017	521.103442	-117.316406	292.959532	354.970972	-103.299165	336.724589	362.720867	-184.235611	240.161577	337.250435	-157.352093	496.235770	247.647425	-142.739996	387.910287	244.917736	-72.636319	336.493635	955.093339	-463.509606	398.699845	900.664613	-463.199180	437.495032	930.480994	-450.436323	454.063730	827.661599	-451.709476	483.834970	716.847556	-437.258570	375.074546	689.020905	-465.806421	301.068857	645.367144	-456.340369	225.390794	606.079515	-441.387961	331.384704	600.172424	-426.577316	117.999402	549.847643	-421.383344	141.879600	531.178999	-343.160899	66.207690	570.287310	-376.341186	185.689111	318.740089	-379.563900	115.070802	398.841442	-445.345571	-228.946736	891.080556	-253.598153	-22.794293	80.798282	-456.150914	-22.769677	80.327791	-55.922818	
752	3.7600	702.851297	1271.992296	-54.348633	742.957717	1253.754395	-438.470452	721.174973	1379.117435	-244.498513	701.668757	1208.306704	-241.499828	526.708377	1038.567932	31.891372	691.585109	890.602938	-67.548619	552.758012	1061.948642	-566.261946	692.818004	886.750511	-482.685803	182.422703	1204.230052	-252.106110	347.343776	1202.305753	-430.349892	339.126592	1190.896334	-98.243061	343.251669	1146.656255	-405.578974	366.776332	1144.496114	-131.129039	217.708314	1238.625520	-203.467698	211.298040	1245.478120	-308.768621	286.840774	1077.842738	-74.826675	282.423209	1065.741680	-451.002498	357.778466	962.764951	-62.286877	407.089870	896.285109	-68.722048	455.463303	821.043842	-82.531194	452.804924	926.968257	-82.877426	493.107274	714.190154	-106.819530	435.630593	608.976524	-72.152932	402.848158	530.699876	-76.441617	360.312565	453.150662	-87.063526	443.688014	513.706955	-117.724165	289.029842	346.616379	-103.593028	334.142202	354.511527	-183.779345	236.620934	329.682374	-157.464228	491.715984	236.976613	-142.853545	383.190941	235.493164	-72.726642	339.893520	957.038907	-464.030515	402.605668	903.982187	-464.630858	441.723604	935.389675	-451.436968	461.112099	834.049648	-454.034688	491.161282	722.296921	-439.643626	382.072843	695.403561	-467.618202	307.636931	652.586357	-457.546316	231.694014	614.304042	-442.135099	337.615556	607.008631	-428.153627	123.869588	558.753560	-421.800067	147.928342	540.450489	-343.606070	72.077903	579.941435	-376.849429	190.638150	327.633810	-379.899960	120.271501	407.959453	-445.622532	-228.975248	891.043595	-253.748197	-22.790547	80.727451	-456.204200	-22.767508	80.303521	-55.946018	
753	3.7650	703.147885	1272.292416	-55.958341	741.738710	1255.719450	-440.383926	720.091998	1380.398149	-245.929646	701.734789	1209.796200	-243.372240	527.099645	1039.288889	31.383053	691.622296	890.654343	-67.419917	552.962321	1061.910223	-566.933361	692.853468	886.700493	-483.077332	181.969426	1202.071866	-250.601772	345.825791	1202.153307	-429.520164	339.746579	1189.098780	-97.142385	342.602255	1146.638481	-404.822652	367.125155	1142.552574	-130.167338	217.544018	1236.366659	-201.972663	210.431827	1243.698839	-306.895113	286.186742	1075.091132	-74.612124	282.938666	1066.022043	-450.865805	355.405374	958.679819	-62.094629	403.287433	891.166864	-68.609582	450.184812	814.776457	-82.784830	449.664863	920.933597	-82.723832	486.096050	707.183950	-106.728084	429.373264	601.317236	-71.928569	397.396667	522.713481	-76.467628	355.767605	444.638422	-87.111493	438.298817	506.277502	-117.979870	284.671883	338.617617	-104.005077	330.535717	346.384079	-183.528569	232.763515	322.578664	-157.579958	486.536109	226.429138	-143.035574	378.284872	226.712986	-72.772440	343.172751	959.177873	-464.069796	406.379373	907.527175	-466.094648	445.140282	940.417783	-452.942602	468.506530	839.386067	-455.646202	498.532776	728.046211	-442.258057	389.069160	701.996433	-469.225164	314.483953	660.131408	-458.819002	238.028040	622.521555	-442.467889	344.181094	613.873441	-429.713252	130.148964	567.379429	-422.237915	155.410359	549.461545	-342.993895	78.606641	588.425809	-376.754047	196.145220	336.149573	-380.076493	126.031604	416.725929	-445.797945	-229.012967	891.004120	-253.918506	-22.807877	80.681705	-456.226507	-22.780221	80.310381	-55.974505	
